<mxfile host="app.diagrams.net" modified="2024-05-14T08:54:26.304Z" agent="Mozilla/5.0 (Windows NT 10.0; Win64; x64) AppleWebKit/537.36 (KHTML, like Gecko) Chrome/124.0.0.0 Safari/537.36 Edg/124.0.0.0" etag="bsT1MNwgXxk2_SUBPhWA" version="24.4.0" type="device">
  <diagram name="Страница — 1" id="W1WNqRkcE6WLE0Cf-HsO">
    <mxGraphModel dx="906" dy="502" grid="1" gridSize="10" guides="1" tooltips="1" connect="1" arrows="1" fold="1" page="1" pageScale="1" pageWidth="827" pageHeight="1169" math="0" shadow="0">
      <root>
        <mxCell id="0" />
        <mxCell id="1" parent="0" />
        <mxCell id="0oU0i3gOLpOegbgGFmd3-32" value="" style="rounded=0;whiteSpace=wrap;html=1;" vertex="1" parent="1">
          <mxGeometry x="50" width="750" height="450" as="geometry" />
        </mxCell>
        <mxCell id="DAkIVHNgKm8LxlmT2ENm-7" value="" style="shape=mxgraph.cisco.storage.cloud;sketch=0;html=1;pointerEvents=1;dashed=0;fillColor=#329097;strokeColor=#ffffff;strokeWidth=2;verticalLabelPosition=bottom;verticalAlign=top;align=center;outlineConnect=0;" parent="1" vertex="1">
          <mxGeometry x="321" y="24" width="186" height="106" as="geometry" />
        </mxCell>
        <mxCell id="DAkIVHNgKm8LxlmT2ENm-8" value="&lt;font style=&quot;font-size: 14px;&quot;&gt;Internet&lt;/font&gt;" style="text;html=1;align=center;verticalAlign=middle;whiteSpace=wrap;rounded=0;" parent="1" vertex="1">
          <mxGeometry x="391" y="62" width="60" height="38" as="geometry" />
        </mxCell>
        <mxCell id="0oU0i3gOLpOegbgGFmd3-14" value="Кабинет директора&lt;br&gt;&lt;br&gt;192.168.5.2 – 192.168.5.254" style="ellipse;shape=cloud;whiteSpace=wrap;html=1;" vertex="1" parent="1">
          <mxGeometry x="60" y="221.5" width="220" height="130" as="geometry" />
        </mxCell>
        <mxCell id="0oU0i3gOLpOegbgGFmd3-18" value="Отдел разработки&lt;br&gt;&lt;br&gt;192.168.3.2 – 192.168.3.254" style="ellipse;shape=cloud;whiteSpace=wrap;html=1;" vertex="1" parent="1">
          <mxGeometry x="70" y="70" width="220" height="130" as="geometry" />
        </mxCell>
        <mxCell id="0oU0i3gOLpOegbgGFmd3-20" value="" style="shape=mxgraph.cisco.routers.router;sketch=0;html=1;pointerEvents=1;dashed=0;fillColor=#036897;strokeColor=#ffffff;strokeWidth=2;verticalLabelPosition=bottom;verticalAlign=top;align=center;outlineConnect=0;" vertex="1" parent="1">
          <mxGeometry x="375" y="168.5" width="78" height="53" as="geometry" />
        </mxCell>
        <mxCell id="0oU0i3gOLpOegbgGFmd3-21" value="Отдел контроля&lt;br&gt;качества&lt;br&gt;&lt;span style=&quot;background-color: initial;&quot;&gt;192.168.6.2 - 192.168.6.254&lt;/span&gt;" style="ellipse;shape=cloud;whiteSpace=wrap;html=1;" vertex="1" parent="1">
          <mxGeometry x="304" y="300" width="220" height="130" as="geometry" />
        </mxCell>
        <mxCell id="0oU0i3gOLpOegbgGFmd3-22" value="&lt;div&gt;Производственный цех&lt;/div&gt;&lt;div&gt;&lt;br&gt;192.168.4.2 – 192.168.4.254&lt;/div&gt;" style="ellipse;shape=cloud;whiteSpace=wrap;html=1;" vertex="1" parent="1">
          <mxGeometry x="540" y="260" width="220" height="130" as="geometry" />
        </mxCell>
        <mxCell id="0oU0i3gOLpOegbgGFmd3-24" value="&lt;div&gt;Точка доступа&lt;br&gt;&lt;br&gt;&lt;/div&gt;&lt;div&gt;&lt;div&gt;192.168.7.2 –&lt;/div&gt;&lt;div&gt;192.168.7.254&lt;/div&gt;&lt;/div&gt;" style="ellipse;shape=cloud;whiteSpace=wrap;html=1;" vertex="1" parent="1">
          <mxGeometry x="560" y="100" width="220" height="130" as="geometry" />
        </mxCell>
        <mxCell id="0oU0i3gOLpOegbgGFmd3-25" value="" style="endArrow=none;html=1;rounded=0;exitX=0.5;exitY=0;exitDx=0;exitDy=0;exitPerimeter=0;" edge="1" parent="1" source="0oU0i3gOLpOegbgGFmd3-20" target="DAkIVHNgKm8LxlmT2ENm-7">
          <mxGeometry width="50" height="50" relative="1" as="geometry">
            <mxPoint x="410" y="320" as="sourcePoint" />
            <mxPoint x="460" y="270" as="targetPoint" />
          </mxGeometry>
        </mxCell>
        <mxCell id="0oU0i3gOLpOegbgGFmd3-26" value="" style="endArrow=none;html=1;rounded=0;entryX=0;entryY=0.5;entryDx=0;entryDy=0;entryPerimeter=0;exitX=0.96;exitY=0.7;exitDx=0;exitDy=0;exitPerimeter=0;" edge="1" parent="1" source="0oU0i3gOLpOegbgGFmd3-18" target="0oU0i3gOLpOegbgGFmd3-20">
          <mxGeometry width="50" height="50" relative="1" as="geometry">
            <mxPoint x="350" y="290" as="sourcePoint" />
            <mxPoint x="400" y="240" as="targetPoint" />
          </mxGeometry>
        </mxCell>
        <mxCell id="0oU0i3gOLpOegbgGFmd3-27" value="" style="endArrow=none;html=1;rounded=0;entryX=0.12;entryY=0.9;entryDx=0;entryDy=0;entryPerimeter=0;exitX=0.88;exitY=0.25;exitDx=0;exitDy=0;exitPerimeter=0;" edge="1" parent="1" source="0oU0i3gOLpOegbgGFmd3-14" target="0oU0i3gOLpOegbgGFmd3-20">
          <mxGeometry width="50" height="50" relative="1" as="geometry">
            <mxPoint x="350" y="290" as="sourcePoint" />
            <mxPoint x="400" y="240" as="targetPoint" />
          </mxGeometry>
        </mxCell>
        <mxCell id="0oU0i3gOLpOegbgGFmd3-28" value="" style="endArrow=none;html=1;rounded=0;entryX=0.5;entryY=1;entryDx=0;entryDy=0;entryPerimeter=0;exitX=0.491;exitY=0.103;exitDx=0;exitDy=0;exitPerimeter=0;" edge="1" parent="1" source="0oU0i3gOLpOegbgGFmd3-21" target="0oU0i3gOLpOegbgGFmd3-20">
          <mxGeometry width="50" height="50" relative="1" as="geometry">
            <mxPoint x="350" y="290" as="sourcePoint" />
            <mxPoint x="400" y="240" as="targetPoint" />
          </mxGeometry>
        </mxCell>
        <mxCell id="0oU0i3gOLpOegbgGFmd3-29" value="" style="endArrow=none;html=1;rounded=0;entryX=0.88;entryY=0.9;entryDx=0;entryDy=0;entryPerimeter=0;exitX=0.4;exitY=0.1;exitDx=0;exitDy=0;exitPerimeter=0;" edge="1" parent="1" source="0oU0i3gOLpOegbgGFmd3-22" target="0oU0i3gOLpOegbgGFmd3-20">
          <mxGeometry width="50" height="50" relative="1" as="geometry">
            <mxPoint x="350" y="340" as="sourcePoint" />
            <mxPoint x="400" y="290" as="targetPoint" />
          </mxGeometry>
        </mxCell>
        <mxCell id="0oU0i3gOLpOegbgGFmd3-30" value="" style="endArrow=none;html=1;rounded=0;entryX=0.093;entryY=0.638;entryDx=0;entryDy=0;entryPerimeter=0;" edge="1" parent="1" source="0oU0i3gOLpOegbgGFmd3-20" target="0oU0i3gOLpOegbgGFmd3-24">
          <mxGeometry width="50" height="50" relative="1" as="geometry">
            <mxPoint x="380" y="290" as="sourcePoint" />
            <mxPoint x="430" y="240" as="targetPoint" />
          </mxGeometry>
        </mxCell>
      </root>
    </mxGraphModel>
  </diagram>
</mxfile>
